<?xml version="1.0" encoding="UTF-8"?>
<svg id="Calque_1" xmlns="http://www.w3.org/2000/svg" viewBox="0 0 42.59 15.25">
  <defs>
    <style>
      .cls-1 {
        fill: blue;
      }
    </style>
  </defs>
  <path class="cls-1" d="M5.49,5.71c0,.39-.06.78-.19,1.15s-.3.7-.53.96c-.26.3-.56.52-.9.67-.34.15-.73.22-1.15.22-.35,0-.69-.07-1.01-.2-.32-.13-.6-.33-.85-.58-.24-.25-.44-.56-.58-.92-.14-.36-.22-.77-.22-1.22,0-.87.25-1.58.76-2.13.51-.55,1.17-.83,1.99-.83s1.42.26,1.93.79c.51.52.76,1.22.76,2.1ZM4.32,5.72c0-.28-.03-.58-.08-.89-.06-.31-.14-.58-.25-.8-.12-.23-.28-.42-.47-.56-.2-.14-.44-.21-.72-.21s-.54.07-.74.21c-.21.14-.37.34-.5.59-.12.23-.21.49-.25.78s-.07.58-.07.85c0,.36.03.69.09,1,.06.31.15.58.28.82.13.24.29.43.48.57.19.14.43.21.72.21.47,0,.84-.23,1.12-.68.27-.45.41-1.08.41-1.88Z"/>
  <path class="cls-1" d="M11.9,8.44l-1.82.12-.08-.08v-.71h-.03c-.09.09-.19.19-.3.3-.11.11-.24.2-.39.29-.17.1-.33.18-.49.23-.16.05-.38.08-.67.08-.49,0-.87-.16-1.12-.48-.26-.32-.39-.79-.39-1.4v-2.66c0-.14-.03-.25-.08-.34s-.13-.17-.22-.24c-.07-.05-.15-.08-.26-.1s-.21-.03-.32-.04v-.37l1.86-.14.08.08v3.86c0,.4.09.71.27.91.18.2.4.3.65.3.21,0,.39-.03.55-.1.16-.06.3-.14.41-.23.1-.08.19-.16.27-.25s.14-.17.18-.25v-3.15c0-.12-.03-.23-.08-.33-.05-.1-.13-.18-.22-.25-.07-.05-.17-.07-.3-.08s-.28-.02-.45-.03v-.37l2.02-.14.08.08v4.41c0,.13.03.24.08.33.05.09.13.17.22.23.07.04.15.07.24.08.09.01.2.02.31.03v.37Z"/>
  <path class="cls-1" d="M21.76,8.55h-2.71v-.37c.09,0,.17-.01.26-.02.09,0,.17-.02.23-.05.11-.03.18-.09.23-.18s.08-.19.08-.33v-2.87c0-.39-.09-.69-.27-.91-.18-.21-.4-.32-.67-.32-.18,0-.36.03-.52.08-.16.06-.31.14-.45.24-.11.08-.2.17-.27.27s-.13.18-.17.24v3.21c0,.13.02.24.07.32s.12.15.23.19c.09.03.16.06.23.08.07.02.16.03.27.04v.37h-2.65v-.37c.09,0,.17-.01.25-.02.08,0,.16-.02.22-.05.11-.03.18-.09.23-.18s.08-.19.08-.33v-2.87c0-.39-.09-.69-.27-.91-.18-.21-.4-.32-.67-.32-.18,0-.36.03-.52.09-.16.06-.31.14-.45.24-.11.08-.2.18-.28.28s-.13.18-.17.23v3.19c0,.13.03.24.08.32.05.09.13.15.24.2.08.04.16.07.24.08.08.02.17.03.28.04v.37h-2.7v-.37c.09,0,.18-.01.27-.02.09,0,.17-.02.24-.05.11-.03.18-.09.23-.18.05-.08.08-.19.08-.33v-3.45c0-.12-.03-.23-.08-.32-.05-.1-.13-.18-.23-.25-.07-.05-.16-.08-.27-.11-.11-.03-.21-.05-.33-.05v-.37l1.86-.12.08.08v.8h.04c.09-.09.21-.2.34-.33.14-.13.26-.23.38-.31.13-.09.3-.17.49-.23.2-.06.41-.09.64-.09.36,0,.67.1.93.29s.45.43.56.7c.14-.13.25-.25.36-.35s.24-.21.41-.32c.14-.1.31-.18.5-.24.19-.06.41-.09.64-.09.47,0,.84.15,1.12.46.27.31.41.78.41,1.42v2.83c0,.13.02.24.07.32s.12.15.23.19c.09.03.17.06.26.08.08.02.18.03.28.04v.37Z"/>
  <path class="cls-1" d="M28.21,8.55h-2.72v-.37c.09,0,.18-.01.28-.02.1,0,.19-.02.26-.05.11-.03.18-.09.23-.18.05-.08.08-.19.08-.33v-2.86c0-.39-.09-.7-.28-.91s-.41-.32-.68-.32c-.2,0-.38.03-.55.09s-.31.14-.44.23c-.12.09-.22.18-.3.28-.07.1-.13.18-.16.24v3.2c0,.13.03.23.08.32.05.08.13.15.24.19.08.04.16.07.26.08.09.02.19.03.28.04v.37h-2.72v-.37c.09,0,.18-.01.27-.02.09,0,.17-.02.24-.05.11-.03.18-.09.23-.18.05-.08.08-.19.08-.33v-3.43c0-.13-.03-.25-.08-.35s-.13-.19-.23-.26c-.07-.05-.16-.08-.25-.1s-.2-.03-.32-.04v-.37l1.85-.12.08.08v.78h.03c.09-.09.2-.2.34-.32s.26-.23.38-.31c.14-.09.3-.17.5-.23.19-.06.41-.09.65-.09.53,0,.93.17,1.19.5.26.33.39.78.39,1.33v2.89c0,.13.02.24.07.32.05.08.12.14.23.19.09.04.17.06.23.08.07.02.16.03.27.03v.37Z"/>
  <path class="cls-1" d="M31.24,8.55h-2.68v-.37c.09,0,.18-.01.27-.02.09,0,.17-.02.24-.05.11-.03.18-.09.23-.18.05-.08.08-.19.08-.33v-3.43c0-.12-.03-.23-.08-.33s-.13-.18-.23-.25c-.07-.05-.17-.08-.31-.12-.14-.03-.26-.05-.37-.06v-.37l1.96-.12.08.08v4.53c0,.13.03.24.08.33.05.09.13.15.24.19.08.03.16.06.24.08.08.02.17.03.26.04v.37ZM30.54.72c0,.21-.07.4-.21.56-.14.16-.31.24-.52.24-.19,0-.36-.08-.5-.23-.14-.15-.21-.33-.21-.52,0-.21.07-.39.21-.54.14-.15.31-.23.5-.23.21,0,.39.07.53.22.14.14.21.31.21.5Z"/>
  <path class="cls-1" d="M31.16,10.36c0-.19.05-.34.15-.46s.23-.18.39-.18c.12,0,.22.02.31.07.09.04.16.1.23.17.06.06.12.13.18.23.06.1.11.18.15.24.19-.1.41-.37.67-.79.26-.43.45-.8.57-1.13-.36-.89-.68-1.69-.97-2.39-.29-.7-.59-1.43-.91-2.18-.07-.17-.19-.31-.36-.4s-.34-.16-.51-.18v-.37h2.54v.39c-.11,0-.25.03-.41.07-.16.04-.24.09-.24.15,0,.02,0,.06.03.11.02.05.04.11.06.16.14.37.36.91.65,1.61.29.7.52,1.26.68,1.68.17-.4.35-.82.53-1.25.18-.43.39-.94.61-1.52.03-.07.06-.17.11-.3s.07-.23.07-.32c0-.1-.09-.19-.26-.27-.17-.08-.33-.14-.49-.16v-.36h2.07v.35c-.11.02-.26.08-.45.19-.18.11-.32.27-.41.47-.45,1.04-.85,1.98-1.19,2.84-.35.85-.61,1.48-.79,1.88-.24.53-.45.94-.63,1.23-.19.3-.37.53-.54.7-.17.16-.33.26-.47.32-.14.05-.29.08-.44.08-.29,0-.52-.07-.69-.21-.17-.14-.25-.3-.25-.48Z"/>
  <path class="cls-1" d="M42.19,8.44c-.18.06-.33.12-.47.16-.13.04-.28.06-.45.06-.29,0-.53-.07-.7-.21-.17-.14-.29-.34-.34-.6h-.03c-.24.27-.51.48-.79.62-.28.14-.62.21-1.01.21-.42,0-.76-.13-1.03-.38-.27-.26-.4-.59-.4-1,0-.21.03-.41.09-.58.06-.17.15-.32.27-.46.09-.11.22-.21.37-.3.15-.09.3-.16.43-.21.17-.06.51-.18,1.03-.36.52-.17.87-.31,1.05-.41v-.56s-.01-.14-.03-.28c-.02-.14-.06-.27-.13-.39-.08-.14-.18-.26-.32-.36-.14-.1-.33-.16-.58-.16-.17,0-.33.03-.48.09-.15.06-.25.12-.31.18,0,.08.02.19.05.33.04.15.05.28.05.41,0,.13-.06.25-.18.36s-.28.16-.49.16c-.19,0-.33-.07-.41-.2-.09-.13-.13-.28-.13-.45s.06-.34.18-.5c.12-.16.28-.3.48-.42.17-.11.37-.19.61-.27.24-.07.48-.11.7-.11.32,0,.59.02.83.06.23.04.45.14.64.28.19.14.34.33.44.57.1.24.15.55.15.92,0,.54,0,1.01-.02,1.43-.01.42-.02.87-.02,1.36,0,.15.03.26.08.35.05.09.13.16.23.22.06.03.15.05.27.06.12,0,.25,0,.38,0v.36ZM40.22,5.47c-.32.09-.6.19-.84.28-.24.09-.46.2-.67.34-.19.13-.34.28-.45.46-.11.18-.16.38-.16.62,0,.31.08.54.25.69.16.15.37.22.62.22.27,0,.5-.06.7-.2.2-.13.37-.28.51-.46l.03-1.95Z"/>
  <path class="cls-1" d="M4.32,10.26c0,.19-.05.36-.14.51-.09.15-.24.22-.43.22-.21,0-.37-.05-.48-.16-.11-.11-.17-.23-.17-.36,0-.08,0-.16.02-.23.01-.07.03-.14.04-.2-.18,0-.38.07-.62.21-.24.14-.44.35-.6.61v3.24c0,.13.03.24.08.32.05.08.13.14.24.19.09.04.22.07.36.08s.28.03.39.04v.37H.06v-.37c.09,0,.18-.01.27-.02.09,0,.17-.02.24-.05.11-.03.18-.09.23-.18.05-.08.08-.19.08-.33v-3.43c0-.12-.03-.23-.08-.34-.05-.11-.13-.2-.23-.27-.07-.05-.16-.08-.25-.1s-.2-.03-.32-.04v-.37l1.85-.12.08.08v.78h.03c.23-.3.49-.54.78-.69.29-.16.55-.24.78-.24s.43.08.58.23c.15.15.22.36.22.62Z"/>
  <path class="cls-1" d="M9.62,13.8c-.23.44-.55.8-.94,1.06-.39.26-.84.39-1.35.39-.45,0-.84-.08-1.18-.24-.34-.16-.61-.37-.83-.64-.22-.27-.38-.59-.49-.95s-.16-.74-.16-1.15c0-.36.06-.72.17-1.06.11-.35.28-.66.5-.94.21-.27.48-.48.8-.65.32-.16.67-.25,1.07-.25s.75.06,1.04.19c.29.13.52.3.71.52.17.21.3.46.39.74.08.29.13.6.13.93v.37h-3.68c0,.37.03.7.1.99s.18.56.33.79c.15.22.34.39.58.52s.52.19.85.19.62-.08.87-.24.48-.44.7-.85l.39.24ZM8.37,11.68c0-.21-.02-.43-.05-.67-.04-.24-.09-.44-.17-.6-.09-.17-.21-.31-.36-.42-.15-.11-.34-.16-.58-.16-.39,0-.72.16-.98.49-.26.33-.4.78-.43,1.37h2.57Z"/>
  <path class="cls-1" d="M19.66,15.11h-2.71v-.37c.09,0,.17-.01.26-.02.09,0,.17-.02.23-.05.11-.03.18-.09.23-.18.05-.08.08-.19.08-.33v-2.87c0-.39-.09-.69-.27-.91-.18-.21-.4-.32-.67-.32-.18,0-.36.03-.52.08-.16.06-.31.14-.45.24-.11.08-.2.17-.27.27s-.13.18-.17.24v3.21c0,.13.02.24.07.32.05.08.12.15.23.19.09.03.16.06.23.08.07.02.16.03.27.04v.37h-2.65v-.37c.09,0,.17-.01.25-.02.08,0,.16-.02.22-.05.11-.03.18-.09.23-.18.05-.08.08-.19.08-.33v-2.87c0-.39-.09-.69-.27-.91-.18-.21-.4-.32-.67-.32-.18,0-.36.03-.52.09-.16.06-.31.14-.45.24-.11.08-.2.18-.28.28s-.13.18-.17.23v3.19c0,.13.03.24.08.32.05.09.13.15.24.2.08.04.16.07.24.08.08.02.17.03.28.04v.37h-2.7v-.37c.09,0,.18-.01.27-.02.09,0,.17-.02.24-.05.11-.03.18-.09.23-.18.05-.08.08-.19.08-.33v-3.45c0-.12-.03-.23-.08-.32-.05-.1-.13-.18-.23-.25-.07-.05-.16-.08-.27-.11-.11-.03-.21-.05-.33-.05v-.37l1.86-.12.08.08v.8h.04c.09-.09.21-.2.34-.33.14-.13.26-.23.38-.31.13-.09.3-.17.49-.23.2-.06.41-.09.64-.09.36,0,.67.1.93.29s.45.43.56.7c.14-.13.25-.25.36-.35s.24-.21.41-.32c.14-.1.31-.18.5-.24.19-.06.41-.09.64-.09.47,0,.84.15,1.12.46.27.31.41.78.41,1.42v2.83c0,.13.02.24.07.32.05.08.12.15.23.19.09.03.17.06.26.08.08.02.18.03.28.04v.37Z"/>
  <path class="cls-1" d="M25.47,15.01c-.18.06-.33.12-.47.15-.13.04-.28.06-.45.06-.29,0-.53-.07-.7-.21-.17-.14-.29-.34-.34-.6h-.03c-.24.27-.51.48-.79.62-.28.14-.62.21-1.01.21-.42,0-.76-.13-1.03-.38-.27-.26-.4-.59-.4-1,0-.21.03-.41.09-.58s.15-.32.27-.46c.09-.11.22-.21.37-.3.15-.09.3-.16.43-.21.17-.06.51-.18,1.03-.36.52-.17.87-.31,1.05-.41v-.56s-.01-.14-.03-.28c-.02-.14-.06-.27-.13-.39-.08-.14-.18-.26-.32-.36-.14-.1-.33-.16-.58-.16-.17,0-.33.03-.48.09-.15.06-.25.12-.31.18,0,.08.02.19.05.33.04.15.05.28.05.41,0,.13-.06.25-.18.36s-.28.16-.49.16c-.19,0-.33-.07-.41-.2-.09-.13-.13-.28-.13-.45s.06-.34.18-.5c.12-.16.28-.3.48-.42.17-.11.37-.19.61-.27.24-.07.48-.11.7-.11.32,0,.59.02.83.06.23.04.45.14.64.28.19.14.34.33.44.57.1.24.15.55.15.92,0,.54,0,1.01-.02,1.43-.01.42-.02.87-.02,1.36,0,.15.03.26.08.35.05.09.13.16.23.22.06.03.15.05.27.06s.25,0,.38,0v.36ZM23.51,12.03c-.32.09-.6.19-.84.28s-.46.2-.67.34c-.19.13-.34.28-.45.46s-.16.38-.16.62c0,.31.08.54.25.69.16.15.37.22.62.22.27,0,.5-.06.7-.2.2-.13.37-.28.51-.46l.03-1.95Z"/>
  <path class="cls-1" d="M28.48,15.25c-.8,0-1.43-.27-1.89-.8s-.68-1.25-.68-2.15c0-.39.06-.76.18-1.1.12-.34.3-.65.53-.93.22-.27.5-.48.83-.65.33-.16.7-.25,1.09-.25.55,0,.99.13,1.33.39.34.26.51.62.51,1.07,0,.19-.05.35-.14.5-.09.14-.24.22-.45.22-.22,0-.39-.06-.52-.17-.12-.11-.18-.24-.18-.38,0-.17.02-.34.07-.52.05-.18.07-.31.08-.39-.07-.12-.17-.19-.3-.23-.13-.04-.28-.06-.43-.06-.18,0-.35.04-.51.12s-.32.22-.48.43c-.14.19-.25.44-.34.76-.09.32-.13.7-.13,1.15,0,.7.15,1.27.46,1.71.31.44.72.66,1.22.66.36,0,.67-.09.92-.27.25-.18.47-.44.68-.8l.36.24c-.25.44-.58.8-.98,1.05-.41.26-.83.39-1.26.39Z"/>
  <path class="cls-1" d="M37.09,15.11h-2.74v-.37c.09,0,.18-.01.29-.02.11,0,.19-.02.26-.05.11-.03.18-.09.23-.18.05-.08.08-.19.08-.33v-2.86c0-.39-.09-.7-.28-.91s-.41-.32-.68-.32c-.2,0-.38.03-.55.09s-.32.14-.45.23c-.13.09-.23.19-.29.28-.07.09-.12.17-.16.24v3.2c0,.13.03.23.08.32.05.08.13.15.23.19.08.04.17.07.26.08.09.02.19.03.29.04v.37h-2.72v-.37c.09,0,.18-.02.27-.03.09,0,.17-.02.24-.04.1-.03.18-.09.24-.18s.08-.19.08-.33v-6.48c0-.13-.03-.26-.09-.38-.06-.13-.13-.22-.23-.29-.07-.05-.19-.08-.36-.1-.17-.02-.31-.03-.41-.04v-.36l2.06-.12.08.08v3.88h.02c.12-.12.24-.23.34-.33.1-.1.24-.2.4-.3.14-.09.31-.17.51-.23.19-.06.41-.09.65-.09.5,0,.88.16,1.15.47s.4.77.4,1.36v2.89c0,.13.02.24.07.32.05.08.13.14.24.19.09.03.17.06.24.08s.16.03.28.04v.37Z"/>
  <path class="cls-1" d="M42.59,13.8c-.23.44-.55.8-.94,1.06s-.84.39-1.35.39c-.45,0-.84-.08-1.18-.24s-.61-.37-.83-.64c-.22-.27-.38-.59-.49-.95-.11-.36-.16-.74-.16-1.15,0-.36.06-.72.17-1.06.11-.35.28-.66.5-.94.21-.27.48-.48.8-.65s.67-.25,1.07-.25.75.06,1.04.19c.29.13.52.3.7.52.17.21.3.46.39.74.08.29.13.6.13.93v.37h-3.68c0,.37.03.7.1.99.07.3.18.56.33.79.15.22.34.39.58.52s.52.19.85.19.62-.08.87-.24c.24-.16.48-.44.7-.85l.39.24ZM41.34,11.68c0-.21-.02-.43-.05-.67-.04-.24-.09-.44-.17-.6-.09-.17-.21-.31-.36-.42-.15-.11-.34-.16-.58-.16-.39,0-.72.16-.98.49-.26.33-.4.78-.43,1.37h2.57Z"/>
</svg>