<?xml version="1.0" encoding="UTF-8"?>
<svg xmlns="http://www.w3.org/2000/svg" version="1.1" viewBox="0 0 60.83 7.43">
  <defs>
    <style>
      .cls-1 {
        fill: blue;
      }
    </style>
  </defs>
  <!-- Generator: Adobe Illustrator 28.6.0, SVG Export Plug-In . SVG Version: 1.2.0 Build 709)  -->
  <g>
    <g id="Calque_1">
      <g>
        <path class="cls-1" d="M3.24,5.73c-.42,0-.79-.1-1.12-.3s-.58-.49-.77-.86-.28-.82-.28-1.33.09-.96.28-1.34.44-.66.77-.87.7-.3,1.12-.3.79.1,1.11.3c.32.2.58.49.77.87.19.37.28.82.28,1.34s-.09.96-.28,1.33-.44.66-.77.86-.7.3-1.11.3ZM3.24,5.16c.29,0,.55-.07.79-.22.23-.15.42-.36.56-.65s.21-.64.21-1.05-.07-.77-.21-1.06-.33-.5-.56-.65c-.24-.15-.5-.22-.79-.22s-.56.07-.79.22c-.23.15-.42.37-.56.65-.14.29-.21.64-.21,1.06s.07.76.21,1.05.33.5.56.65.5.22.79.22Z"/>
        <path class="cls-1" d="M7.56,5.71c-.25,0-.46-.05-.65-.15s-.33-.25-.44-.46-.15-.46-.15-.77v-2.32h.59v2.28c0,.28.07.5.22.66s.35.24.61.24c.17,0,.33-.04.47-.11.14-.08.25-.19.33-.34s.12-.32.12-.53v-2.2h.59v3.66h-.57v-.89h.08c-.11.34-.28.58-.48.72s-.45.21-.71.21h0Z"/>
        <path class="cls-1" d="M10.29,5.67v-3.66h.57v.82h-.04c.05-.2.13-.36.24-.49s.23-.23.38-.29c.14-.07.3-.1.45-.1.27,0,.48.08.65.25.16.16.27.38.32.64h-.08c.04-.18.12-.34.24-.47s.26-.24.42-.31.34-.11.54-.11c.21,0,.4.05.58.14s.31.23.42.42c.1.19.15.42.15.7v2.47h-.59v-2.45c0-.26-.07-.45-.22-.57s-.32-.17-.52-.17c-.16,0-.31.03-.42.1-.12.07-.21.16-.28.28s-.1.26-.1.41v2.39h-.59v-2.51c0-.2-.07-.37-.2-.49s-.31-.19-.51-.19c-.14,0-.28.03-.4.1s-.23.17-.3.3-.11.29-.11.49v2.3h-.6Z"/>
        <path class="cls-1" d="M16.75,3.47v2.19h-.59v-3.65h.57v.89h-.08c.11-.34.27-.58.48-.72.21-.14.45-.21.72-.21.25,0,.46.05.65.15s.33.25.43.46c.1.2.15.46.15.77v2.32h-.59v-2.28c0-.28-.07-.5-.22-.66-.15-.16-.35-.24-.6-.24-.17,0-.33.04-.47.11s-.25.19-.33.33-.12.32-.12.53h0Z"/>
        <path class="cls-1" d="M20.42,1.41c-.11,0-.21-.04-.29-.11s-.12-.17-.12-.28.04-.2.12-.28.18-.11.29-.11.21.04.29.11c.08.07.12.17.12.28s-.04.2-.12.28-.18.11-.29.11ZM20.12,5.67v-3.66h.59v3.66h-.59Z"/>
        <path class="cls-1" d="M21.69,6.99l.15-.51.06.02c.12.03.23.04.33.02s.19-.06.27-.15.15-.21.21-.39l.1-.3-1.4-3.68h.64l.78,2.17c.08.23.15.45.21.67s.12.44.18.65h-.22c.06-.21.12-.43.18-.65s.13-.45.21-.67l.79-2.17h.64l-1.61,4.21c-.07.19-.16.35-.27.48-.1.13-.22.22-.36.28s-.29.09-.46.09c-.1,0-.2,0-.27-.02s-.13-.03-.16-.05Z"/>
        <path class="cls-1" d="M26.51,5.75c-.23,0-.44-.04-.63-.13-.19-.09-.34-.21-.45-.38s-.17-.37-.17-.61c0-.21.04-.38.12-.51s.19-.23.33-.31.29-.13.46-.17.34-.07.51-.09c.22-.03.4-.05.53-.07s.24-.04.31-.08.1-.1.1-.19v-.02c0-.15-.03-.28-.09-.39s-.14-.19-.26-.24-.26-.09-.43-.09-.32.03-.45.08-.23.12-.3.2c-.08.08-.14.17-.18.25l-.57-.19c.09-.22.22-.4.38-.52s.34-.21.53-.27.38-.08.57-.08c.12,0,.26,0,.42.04.15.03.31.09.45.18.14.09.26.22.36.39.09.17.14.4.14.69v2.41h-.58v-.5h-.04c-.04.09-.11.17-.2.26s-.21.17-.36.23-.32.09-.53.09l.03.02ZM26.61,5.23c.22,0,.4-.04.55-.13s.27-.2.34-.33.12-.28.12-.43v-.51s-.08.05-.16.08-.17.04-.28.06-.2.03-.3.04-.17.02-.23.03c-.14.02-.28.05-.4.09s-.22.1-.3.19-.11.19-.11.33c0,.13.03.23.1.32s.15.15.27.19.24.07.39.07h.01Z"/>
        <path class="cls-1" d="M31.2,5.67V.79h1.67c.38,0,.69.06.94.19.24.13.43.31.55.54s.18.49.18.78-.06.55-.18.77-.3.4-.54.52-.56.19-.94.19h-1.33v-.55h1.3c.26,0,.46-.04.62-.11s.27-.18.34-.32.11-.3.11-.49-.04-.36-.11-.51-.19-.25-.34-.33-.37-.12-.63-.12h-1.01v4.33h-.63ZM34.01,5.67l-1.18-2.2h.7l1.2,2.2s-.72,0-.72,0Z"/>
        <path class="cls-1" d="M36.89,5.75c-.35,0-.66-.08-.91-.24-.26-.16-.46-.38-.59-.66s-.21-.61-.21-.99.07-.71.2-.99.33-.51.57-.67.54-.24.87-.24c.19,0,.39.03.58.1.19.06.36.17.51.31.15.14.28.33.37.56s.14.52.14.86v.25h-2.84v-.5h2.52l-.28.18c0-.24-.04-.45-.11-.64-.08-.19-.19-.33-.34-.44s-.33-.16-.55-.16-.41.05-.57.16c-.16.11-.28.25-.36.42s-.12.36-.12.56v.33c0,.27.05.5.14.69s.22.33.39.43.37.15.59.15c.14,0,.28-.02.39-.06s.22-.1.3-.19.15-.19.2-.31l.57.16c-.06.18-.15.34-.29.48s-.3.25-.5.33-.43.12-.68.12h.01Z"/>
        <path class="cls-1" d="M39.26,5.67v-3.66h.57v.82h-.04c.05-.2.13-.36.24-.49s.23-.23.38-.29c.14-.07.3-.1.45-.1.27,0,.48.08.65.25.16.16.27.38.32.64h-.08c.04-.18.12-.34.24-.47s.26-.24.42-.31.34-.11.54-.11c.21,0,.4.05.58.14s.31.23.42.42c.1.19.15.42.15.7v2.47h-.59v-2.45c0-.26-.07-.45-.22-.57s-.32-.17-.52-.17c-.16,0-.31.03-.42.1-.12.07-.21.16-.28.28s-.1.26-.1.41v2.39h-.59v-2.51c0-.2-.07-.37-.2-.49s-.31-.19-.51-.19c-.14,0-.28.03-.4.1s-.23.17-.3.3-.11.29-.11.49v2.3h-.6Z"/>
        <path class="cls-1" d="M46.15,5.75c-.23,0-.44-.04-.63-.13-.19-.09-.34-.21-.45-.38s-.17-.37-.17-.61c0-.21.04-.38.12-.51s.19-.23.33-.31.29-.13.46-.17.34-.07.51-.09c.22-.03.4-.05.53-.07s.24-.04.31-.08.1-.1.1-.19v-.02c0-.15-.03-.28-.09-.39s-.14-.19-.26-.24-.26-.09-.43-.09-.32.03-.45.08-.23.12-.3.2c-.08.08-.14.17-.18.25l-.57-.19c.09-.22.22-.4.38-.52s.34-.21.53-.27.38-.08.57-.08c.12,0,.26,0,.42.04.15.03.31.09.45.18.14.09.26.22.36.39.09.17.14.4.14.69v2.41h-.58v-.5h-.04c-.04.09-.11.17-.2.26s-.21.17-.36.23-.32.09-.53.09l.03.02ZM46.26,5.23c.22,0,.4-.04.55-.13s.27-.2.34-.33.12-.28.12-.43v-.51s-.08.05-.16.08-.17.04-.28.06-.2.03-.3.04-.17.02-.23.03c-.14.02-.28.05-.4.09s-.22.1-.3.19-.11.19-.11.33c0,.13.03.23.1.32s.15.15.27.19.24.07.39.07h.01Z"/>
        <path class="cls-1" d="M50.38,5.75c-.33,0-.62-.08-.87-.24s-.45-.38-.58-.66-.21-.61-.21-.99.07-.72.21-1,.33-.51.58-.66c.25-.16.54-.24.87-.24.18,0,.34.02.5.07s.3.11.43.2.24.19.34.32.17.27.22.43l-.57.16c-.03-.09-.07-.18-.12-.26s-.12-.15-.2-.2-.17-.1-.27-.13-.21-.05-.33-.05c-.24,0-.45.06-.6.19-.15.13-.27.3-.35.5s-.11.43-.11.68.04.46.11.67c.07.21.19.37.35.5s.36.19.6.19c.12,0,.23-.02.34-.05s.19-.08.27-.14.15-.13.2-.21.09-.17.12-.27l.56.16c-.05.16-.12.31-.21.44-.1.13-.21.24-.34.33s-.28.16-.44.21-.33.07-.51.07v-.02Z"/>
        <path class="cls-1" d="M53.31,3.47v2.19h-.59V.79h.59v2.11h-.1c.11-.34.27-.58.48-.72.21-.14.45-.21.72-.21.25,0,.46.05.65.15.19.1.33.25.43.46.1.21.16.46.16.77v2.32h-.59v-2.28c0-.28-.07-.5-.22-.66-.15-.16-.35-.24-.6-.24-.17,0-.33.04-.47.11s-.25.19-.33.33-.12.32-.12.53h0Z"/>
        <path class="cls-1" d="M58.23,5.75c-.35,0-.66-.08-.91-.24-.26-.16-.46-.38-.59-.66s-.21-.61-.21-.99.07-.71.2-.99.33-.51.57-.67.54-.24.87-.24c.19,0,.39.03.58.1.19.06.36.17.51.31.15.14.28.33.37.56s.14.52.14.86v.25h-2.84v-.5h2.52l-.28.18c0-.24-.04-.45-.11-.64-.08-.19-.19-.33-.34-.44s-.33-.16-.55-.16-.41.05-.57.16c-.16.11-.28.25-.36.42s-.12.36-.12.56v.33c0,.27.05.5.14.69s.22.33.39.43.37.15.59.15c.14,0,.28-.02.39-.06s.22-.1.3-.19.15-.19.2-.31l.57.16c-.06.18-.15.34-.29.48s-.3.25-.5.33-.43.12-.68.12h0Z"/>
      </g>
    </g>
  </g>
</svg>